<svg id="圖層_1" data-name="圖層 1" xmlns="http://www.w3.org/2000/svg" viewBox="0 0 896.01 224.86"><defs><style>.cls-1{fill:#fff;}</style></defs><path class="cls-1" d="M282.51,73h21.06l7.58,49,11.1-49h21l11.12,49,7.59-49h20.95L367.07,160.6H345.33l-12.58-55.15L320.22,160.6H298.47Z"/><path class="cls-1" d="M390.08,73H449.5v18.7H412.31v13.92h34.5V123.5h-34.5v17.26h38.27V160.6h-60.5Z"/><path class="cls-1" d="M462.57,73h41.5q10.38,0,15.93,6.27a22.57,22.57,0,0,1,5.56,15.54,22.31,22.31,0,0,1-4,13.32,17.66,17.66,0,0,1-7.73,5.86q7.74,2.27,11.38,7.79t3.65,13.89a28.13,28.13,0,0,1-2.6,12.26,21.83,21.83,0,0,1-7.09,8.6c-1.86,1.31-4.67,2.27-8.42,2.86a79.92,79.92,0,0,1-9.93,1.2H462.57Zm22.36,34.35h9.65c3.46,0,5.86-.72,7.22-2.18s2-3.55,2-6.3a8.4,8.4,0,0,0-2-6q-2-2.15-7.07-2.15h-9.8Zm0,34.42h11.31c3.82,0,6.51-.82,8.08-2.48a9.33,9.33,0,0,0,2.34-6.66,8.48,8.48,0,0,0-2.32-6.24c-1.55-1.58-4.27-2.36-8.15-2.36H484.93Z"/><path class="cls-1" d="M540.78,73h32.94q9.74,0,15.73,3.22a26.91,26.91,0,0,1,9.91,9.26,42,42,0,0,1,5.67,14,78.54,78.54,0,0,1,1.77,17q0,14-2.62,21.77a37.16,37.16,0,0,1-7.26,13,23.05,23.05,0,0,1-10,7,43,43,0,0,1-13.21,2.39H540.78ZM563,92.85V140.7h5.43c4.64,0,7.93-.62,9.89-1.87s3.49-3.45,4.6-6.58,1.66-8.2,1.66-15.2q0-13.93-3.72-19.07t-12.33-5.13Z"/><path class="cls-1" d="M665.14,73h22.13v52.18a52.88,52.88,0,0,1-2,14.66,33.23,33.23,0,0,1-6.21,12.06,25.09,25.09,0,0,1-8.89,7.26,37.45,37.45,0,0,1-15.52,2.92,79.69,79.69,0,0,1-11.42-.89,26.08,26.08,0,0,1-10.36-3.55,27.75,27.75,0,0,1-7.6-7.55,29.68,29.68,0,0,1-4.72-10.1,62.94,62.94,0,0,1-2.06-14.81V73h22.13v53.43q0,7.17,3.25,11.19a12.13,12.13,0,0,0,18,.06c2.18-2.64,3.26-6.4,3.26-11.25Z"/><path class="cls-1" d="M702.83,73h22.22V160.6H702.83Z"/><path class="cls-1" d="M741.1,73h20.7l27,48.46V73h20.89V160.6H788.83L762,112.51V160.6H741.1Z"/><path class="cls-1" d="M821.66,116.86q0-21.44,9.79-33.4t27.26-11.95q17.92,0,27.61,11.74T896,116.14q0,15.36-4.24,25.19a34.46,34.46,0,0,1-12.23,15.29q-8,5.48-19.94,5.47-12.15,0-20.09-4.71t-12.9-14.94Q821.66,132.21,821.66,116.86Zm22.18.12q0,13.26,4,19.07a13.46,13.46,0,0,0,22,.11q3.92-5.67,3.92-20.38,0-12.36-4.09-18.07A12.93,12.93,0,0,0,858.67,92a12.56,12.56,0,0,0-10.78,5.8Q843.84,103.6,843.84,117Z"/><path class="cls-1" d="M233.62,72.8v-24h4.31v24Z"/><path class="cls-1" d="M241.16,60.93a17,17,0,0,1,1-6.16,11.57,11.57,0,0,1,2-3.29,8.3,8.3,0,0,1,2.76-2.17,10.62,10.62,0,0,1,4.6-1,9.43,9.43,0,0,1,7.54,3.3c1.89,2.19,2.84,5.25,2.84,9.16s-.94,6.92-2.81,9.11a10.32,10.32,0,0,1-15.08,0Q241.17,66.67,241.16,60.93Zm4.44-.16c0,2.72.56,4.79,1.67,6.19a5.22,5.22,0,0,0,4.25,2.11A5.16,5.16,0,0,0,255.75,67q1.65-2.1,1.65-6.27c0-2.76-.54-4.81-1.61-6.17a5.5,5.5,0,0,0-8.56,0Q245.59,56.63,245.6,60.77Z"/><polygon class="cls-1" points="157.66 138.82 157.66 138.82 120.72 48.77 119.73 48.77 116.68 48.77 107.77 48.77 97.35 74.17 97.35 74.17 96.34 76.63 96.31 76.71 96.31 76.71 71.82 136.42 35.87 48.77 0 48.77 53.39 178.93 54.38 178.93 55.59 178.93 66.34 178.93 77.8 150.99 77.8 150.99 102.29 91.28 138.25 178.93 139.23 178.93 141.24 178.93 151.19 178.93 162.65 150.99 157.66 138.82"/><polygon class="cls-1" points="205.57 48.77 204.58 48.77 201.81 48.77 192.63 48.77 181.17 76.71 181.17 76.71 156.67 136.42 162.65 150.99 187.15 91.28 223.1 178.93 258.96 178.93 205.57 48.77"/><polygon class="cls-1" points="170.45 178.93 203.84 178.93 187.15 136.42 170.45 178.93"/></svg>