<svg xmlns="http://www.w3.org/2000/svg" viewBox="0 0 1697.78 310.49">
  <defs>
    <style>
      .cls-1,
      .cls-2 {
        fill: #fff;
      }

      .cls-2 {
        stroke: #fff;
        stroke-miterlimit: 10;
        stroke-width: 2.05px;
      }
    </style>
  </defs>
  <g id="圖層_1" data-name="圖層 1">
    <path class="cls-1"
      d="M32.59,273.69a14.47,14.47,0,0,1-3.12-.34,14.16,14.16,0,0,1-10.71-16.92c.49-2.22,12.41-55,30.65-108.68,10.85-32,21.71-57.6,32.28-76.17C97.26,44.22,113.06,30.91,130,30.91c7.48,0,18.17,2.7,26.62,15.53,4.59,7,8.16,16.42,10.91,28.9,4.64,21,6.5,48.72,8.3,75.5,1.74,25.93,3.54,52.75,7.79,71.92,2.49,11.24,5.2,16.9,7,19.67,1.29,1.95,2.4,2.94,3.28,2.94A15,15,0,0,0,205.76,240c7.61-8.31,12.73-25.95,14.42-49.65a263.3,263.3,0,0,0-.07-36.82A14.16,14.16,0,0,1,248.32,151a285.91,285.91,0,0,1,.14,40.91c-2.16,31.14-9.49,53.74-21.79,67.19a43.38,43.38,0,0,1-32.74,14.55c-7.54,0-18.33-2.7-26.89-15.6-4.66-7-8.29-16.58-11.09-29.2-4.71-21.26-6.58-49.17-8.4-76.16C145.83,127,144,100.4,139.86,81.44c-2.44-11.11-5.1-16.69-6.9-19.41-.68-1-2-2.79-3-2.79s-21,1.11-53.7,97.43C58.53,209,46.51,262.1,46.39,262.64A14.17,14.17,0,0,1,32.59,273.69Z" />
    <path class="cls-1"
      d="M188.24,176.32a13.32,13.32,0,0,1-1.66-.1l-84.52-9.85a14.16,14.16,0,0,1,3.28-28.13l84.52,9.85a14.16,14.16,0,0,1-1.62,28.23Z" />
    <path class="cls-1"
      d="M233.89,130.62a27.26,27.26,0,1,1,27.26-27.26A27.3,27.3,0,0,1,233.89,130.62Zm0-41.48a14.22,14.22,0,1,0,14.21,14.22A14.24,14.24,0,0,0,233.89,89.14Z" />
    <path class="cls-1"
      d="M217.61,92a6.5,6.5,0,0,1-4.73-2l-4.47-4.71a6.53,6.53,0,1,1,9.47-9l4.47,4.71a6.53,6.53,0,0,1-4.74,11Z" />
    <path class="cls-1"
      d="M235.35,86c-.22,0-.43,0-.65,0a6.52,6.52,0,0,1-5.85-7.14l.54-5.35a6.52,6.52,0,1,1,13,1.29l-.53,5.36A6.53,6.53,0,0,1,235.35,86Z" />
    <path class="cls-1"
      d="M250.62,95.74A6.52,6.52,0,0,1,246,84.6l5.3-5.3a6.52,6.52,0,1,1,9.22,9.23l-5.3,5.3A6.5,6.5,0,0,1,250.62,95.74Z" />
    <circle class="cls-1" cx="233.89" cy="103.36" r="7.72" />
    <path class="cls-2"
      d="M395.63,91.43V254q0,10.85-10.86,10.85-11.1,0-11.1-10.85V125.47a204.58,204.58,0,0,1-13.57,17c-3.78,4.28-7.12,6.29-10,6s-5.64-2.84-8.27-7.77q-5.18-10.11,2.22-17.52Q374.42,90.94,394.15,45q4.19-10.84,15.05-7.4Q420,41.35,415.86,52,407.22,71.19,395.63,91.43Zm105.1,84.62H559q11.34,0,11.35,11.35,0,11.6-11.35,11.6H500.73v54.52q0,11.6-11.59,11.6t-11.6-11.6V199H421q-11.35,0-11.35-11.6,0-11.34,11.35-11.35h56.5v-37.5H433.38q-10.86,0-10.86-11.1,0-10.86,10.86-10.86h44.16V45.79q0-11.61,11.6-11.6t11.59,11.6v70.8h44.41q11.1,0,11.1,10.86,0,11.1-11.1,11.1H500.73ZM459.53,65.52q-8.88,19.24-24.67,40-5.92,7.16-14.31,1.73-9.87-6.66-2.22-15.79a175.87,175.87,0,0,0,20-33.55q3.7-9.63,14.31-6.67Q464.46,54.42,459.53,65.52Zm93.26,6.91Q562.9,86.5,564.88,90q4.44,9.12-4.94,13.81-11.1,6.17-15.54-3.45-8.64-16-24.67-34.79-9.14-9.37,2.22-15.3,7.39-3.93,13.32,1.73Q542.68,59.6,552.79,72.43Z" />
    <path class="cls-2"
      d="M665.59,155.08H764q10.11,0,12,4.81t-5.3,13.94q-14.07,13.08-38,24.92h87.59q9.38,0,9.37,9.13,0,9.62-9.37,9.62H732.69v24.92q0,8.88-2.46,13.32t-8.89,6.66q-8.39,2.72-29.11,3.21-12.09,0-15.05-7.89-2.46-6.42,1.48-9.13c2.63-1.82,6.66-2.63,12.09-2.47q11.85,0,13.82-.25c2.13-.16,3.53-.49,4.19-1s1-1.48,1-2.95V217.5H622.66q-9.39,0-9.38-9.62,0-9.13,9.38-9.13h87.09v-7.4c0-3.78,1.81-5.68,5.43-5.68h7.65q8.37-3.94,22.69-13.32H665.59q-8.64,0-8.64-8.63T665.59,155.08Zm133.72-14.31H643.14q-6.18,0-6.17,6.17v13.82q0,10.85-10.86,10.85-11.1,0-11.1-10.85v-21q0-7.41,4.44-12t11.84-4.57h3.21l-4.19-64.64c-.34-4.27.86-7.52,3.57-9.74s6.21-2.59,10.49-1.11q3.95-1.23,28.86-10.36,5.19-2,9.87,3.2,6.92,7.9-2,11.6-14.8,4.94-28.87,8.39l.5,8.88h27.63q7.65,0,7.65,7.65t-7.65,7.65H654l.49,11.59h20.24q6.4,0,10.23,3.83t3.83,10.24v.73a139.92,139.92,0,0,0,21.46-12.58,43.19,43.19,0,0,0-6.66-4.19Q695.44,90,702.84,84a7.49,7.49,0,0,1,8.88-1q9.13,5.17,10.61,6.17a78.31,78.31,0,0,0,7.4-7.4q3.94-4.69,10.36-2.72,9.13,3,3.21,10.36-2.46,2.73-8.14,8.39c3.45,2.64,6.42,4.94,8.88,6.91q5.67,4.94-.49,10.36-5.68,4.94-10.61.5a115.89,115.89,0,0,0-9.37-7.65q-5.69,4.44-11.85,8.39-10.35,5.91-19.73-2c-.34-.32-.87-.78-1.61-1.35a17.51,17.51,0,0,1-1.6-1.36H655.47l.49,11.59H787l1.23-11.59H762.55q-7.65,0-7.65-7.65t7.65-7.65h26.89l1.23-11.59H763.53q-7.65,0-7.64-7.65t7.64-7.65h28.13l.25-6.41c.32-3.46-1.32-5.18-4.94-5.18H762.55q-7.65,0-7.65-7.9,0-7.41,7.65-7.4h35.28q7.89,0,12.21,4.56t4.07,12.22q-1.25,21.71-4.69,63.89h10.36q8.64,0,8.64,8.64v28.37q0,11.36-11.35,11.35-11.6,0-11.59-11.35V146.94Q805.48,140.78,799.31,140.77ZM711.72,72.43l-5.18,3q-5.43,3.47-10.36-.74-8.64-6.9,2.22-11.84L709,55.9a46,46,0,0,0-6.91-4.2q-6.42-3.69-2.22-8.63,3.95-4.68,9.38-3.21a2.26,2.26,0,0,1,1,.25q8.64,4.94,11.1,6.41c3-2.62,5.1-4.6,6.42-5.92,2.79-3.28,6.17-4.27,10.11-3q11.36,3.7-3,16.53a7.57,7.57,0,0,0-1,.74l3,2a29.19,29.19,0,0,1,4,3,28.84,28.84,0,0,1,2.46,3,4.23,4.23,0,0,1,.87,4,9.22,9.22,0,0,1-2.84,3.94q-5.93,5.19-10.86.25c-.82-.66-2.14-1.64-4-3s-3.2-2.38-4.19-3.21c-1.15.83-2.92,2.1-5.3,3.83Z" />
    <path class="cls-1" d="M1319,90.32c0-1.63-.48-2.64-2.84-2.64h-32v6.66H1319Z" />
    <path class="cls-1" d="M1319,114.36v-3.43h-34.85v6.86h31.42C1318,117.79,1319,116.83,1319,114.36Z" />
    <path class="cls-1" d="M1546.69,149.84c0-2.32-.91-3.23-3.23-3.23h-20.38v8h23.61Z" />
    <path class="cls-1"
      d="M1316.54,197.67h-83c-2.32,0-3.23.9-3.23,3.23v3.82h89.25V200.5C1319.57,198.8,1319.05,197.67,1316.54,197.67Z" />
    <path class="cls-1" d="M1230.32,224c0,2.32.85,3.23,3,3.23h82.78c2.47,0,3.43-1,3.43-3.43v-4.41h-89.25Z" />
    <path class="cls-1"
      d="M1496.91,100.86a7.49,7.49,0,0,1-.82,6.59c-.12.17-.25.33-.38.48h29.86c3.06-6.46,5.31-11.61,6.7-15.33h-38.52c.6,1.15,1.07,2.13,1.42,3A45.39,45.39,0,0,1,1496.91,100.86Z" />
    <path class="cls-1"
      d="M1544.28,19H1011.8C944.56,19,885,80.57,885,156.55h0c0,76,59.58,137.59,126.82,137.59h532.48c67.25,0,129.48-61.6,129.48-137.59h0C1673.76,80.57,1611.53,19,1544.28,19Zm-82.43,57h39.7V71.59c0-6.92,3.72-10.57,10.76-10.57s10.57,3.65,10.57,10.57V76h41.28c5.41,0,8.39,3,8.39,8.4s-3,8.2-8.39,8.2h-9.7c-2.35,4.86-5,10-8,15.33h23.45c5.67,0,8.8,3.06,8.8,8.6s-3.13,8.8-8.8,8.8H1455c-5.67,0-8.79-3.13-8.79-8.8s3.12-8.6,8.79-8.6h23.74c-.58-2.36-1.28-4.73-2.09-7.07-1.18-2.84-1.22-5.29-.09-7.22a6.51,6.51,0,0,1,.77-1h-15.43c-5.41,0-8.4-2.91-8.4-8.2S1456.44,76,1461.85,76Zm-452,85.8h0c-5.66,14.75-11.22,26.25-16.51,34.2-2.06,3.09-4.37,4.92-6.85,5.46a8.05,8.05,0,0,1-1.79.19,14.35,14.35,0,0,1-6.74-2c-3.93-2-6.21-4.51-6.76-7.34s.47-6,3.11-9.64c9.8-15.59,17.55-36.65,23-62.51,1.47-7.36,6.37-10.57,14.14-9.25,4,.67,6.84,2.22,8.44,4.62s1.92,5.45,1,9.22A312.58,312.58,0,0,1,1009.81,161.8ZM1074.17,222c0,6.48-.86,11.28-2.64,14.69a16.92,16.92,0,0,1-9.15,7.79c-6,2.17-15.54,3.39-28.51,3.66-8.58,0-14-2.85-16-8.48-2.28-6.08-.23-9.22,1.9-10.79,2.79-2.06,6.84-3,12.36-2.85a134.62,134.62,0,0,0,14.78,0c2.32-.15,3.14-.66,3.44-1s.74-1,.74-3.08V74.35c0-7.56,4-11.56,11.55-11.56s11.56,4,11.56,11.56Zm81.21-23.65c-1.3,1.75-3.6,3.3-7,4.73a19.11,19.11,0,0,1-7.1,1.7,8.71,8.71,0,0,1-3-.49c-2.69-1-4.5-3.74-5.4-8.21a247.9,247.9,0,0,0-11.34-32.44h0c-5.74-13.83-11.69-26.72-17.69-38.33-1.76-3.37-2.16-6.35-1.18-8.85s3.39-4.52,7.13-5.86c6.2-2.22,11-.55,14,4.82,15.49,26.65,26.41,51.84,32.47,74.85C1157.08,193.78,1156.76,196.47,1155.38,198.34ZM1341.3,228.1a14.12,14.12,0,0,1-4.1,10.54,14.66,14.66,0,0,1-10.61,4H1223.7a14.66,14.66,0,0,1-10.61-4,14.1,14.1,0,0,1-4.1-10.54V197.15a14,14,0,0,1,14.71-14.71h102.89a14,14,0,0,1,14.71,14.71ZM1356,177.16H1192c-5.29,0-8.2-2.91-8.2-8.2s2.91-8.2,8.2-8.2h70.45V154.1h-57.05c-4.9,0-7.61-2.7-7.61-7.61s2.71-7.61,7.61-7.61h57.05v-6.26H1209.9c-4.65,0-7.22-2.7-7.22-7.61,0-4.66,2.57-7.22,7.22-7.22h52.51v-6.86h-70.25c-5.29,0-8.2-3-8.2-8.39s2.91-8.2,8.2-8.2h70.25V87.68h-50.34c-4.66,0-7.22-2.64-7.22-7.42s2.56-7.21,7.22-7.21h50.34V70.21c0-7,3.79-10.77,11-10.77s10.76,3.73,10.76,10.77v2.84h41.48a14,14,0,0,1,14.7,14.7v6.59h15.45c5.29,0,8.21,2.91,8.21,8.2s-2.92,8.39-8.21,8.39h-15.45v9.94a11.42,11.42,0,0,1-3.31,8.57,12,12,0,0,1-8.64,3.18h-44.23v6.26h58.23c4.91,0,7.61,2.71,7.61,7.61s-2.7,7.61-7.61,7.61h-58.23v6.66H1356c5.29,0,8.2,2.91,8.2,8.2S1361.25,177.16,1356,177.16Zm80.39,60.4c0,6.78-3.59,10.37-10.37,10.37s-10.37-3.59-10.37-10.37V142.74c-1.64,2.19-3.52,4.56-5.63,7.08-3.4,4-6.47,5.8-9.45,5.56s-5.63-2.53-8-7c-3.08-5.72-2.41-11,2-15.73,15.16-17.11,27.94-38.12,38-62.42,2.2-6.33,6.85-8.77,13.41-7,3.54,1.06,5.9,2.78,7,5.12s1,5.18-.32,8.52a354.79,354.79,0,0,1-16.25,33.74Zm134.11,6.63H1453c-5.41,0-8.4-2.92-8.4-8.21,0-5.54,3-8.59,8.4-8.59h48.77v-10H1463c-5.29,0-8.21-3-8.21-8.4,0-5.16,2.92-8,8.21-8h38.71v-8.43h-28.86A13.71,13.71,0,0,1,1458.38,178V145.9a14.64,14.64,0,0,1,4-10.6,14.08,14.08,0,0,1,10.54-4.11h80a14,14,0,0,1,14.71,14.71V178a14.1,14.1,0,0,1-4.1,10.54,14.68,14.68,0,0,1-10.61,4h-29.84V201h38.31c5.29,0,8.21,2.85,8.21,8,0,5.41-2.92,8.4-8.21,8.4h-38.31v10h47.38c5.42,0,8.4,3.05,8.4,8.59C1578.86,241.27,1575.88,244.19,1570.46,244.19Z" />
    <path class="cls-1" d="M1478.33,173.89c0,2.47.91,3.43,3.23,3.43h20.19v-8.83h-23.42Z" />
    <path class="cls-1" d="M1478.33,149.84v4.81h23.42v-8h-20.19C1479.24,146.61,1478.33,147.52,1478.33,149.84Z" />
    <path class="cls-1" d="M1546.69,173.89v-5.4h-23.61v8.83h20.38C1545.78,177.32,1546.69,176.36,1546.69,173.89Z" />
  </g>
</svg>